<svg xmlns="http://www.w3.org/2000/svg" width="140" height="140" id="windows"><path fill="#0e73d8" d="m7.448 72.722.004 42.556 51.131 7.006-.038-49.232zM132.571 7.411 64.747 17.28v50.016l67.824-.541z"></path><path fill="#1b8eed" d="m7.411 25.136.049 42.537 51.132-.291-.025-49.192zM64.747 123.044l67.824 9.545.018-59.076-67.94-.11zM7.45 92.968l.002 22.31 51.116 7.004-.023-28.984zM64.747 67.296l67.824-.541V27.659l-67.824 9.869z"></path><path fill="#20b5ec" d="m7.434 45.38.026 22.293 51.122-.291-.015-28.944zM132.571 132.589l.012-38.828-67.894-.112.058 29.395z"></path><path fill="none" stroke="#33363a" stroke-linecap="round" stroke-linejoin="round" stroke-miterlimit="10" stroke-width="3" d="m7.448 72.722.004 42.556 51.131 7.006-.038-49.232zM132.571 7.411 64.747 17.28v50.016l67.824-.541zM7.411 25.136l.049 42.537 51.132-.291-.025-49.192zM64.747 123.044l67.824 9.545.018-59.076-67.94-.11z"></path></svg>